<svg xmlns="http://www.w3.org/2000/svg" viewBox="0 0 320 200" fill="none">
  <defs>
    <linearGradient id="bg3" x1="0" y1="0" x2="320" y2="200" gradientUnits="userSpaceOnUse">
      <stop offset="0%" stop-color="#FDF2F8"/>
      <stop offset="100%" stop-color="#EEF4FF"/>
    </linearGradient>
  </defs>
  <rect width="320" height="200" rx="16" fill="url(#bg3)"/>
  <!-- Building icon -->
  <circle cx="60" cy="60" r="28" fill="white" stroke="#e628a8" stroke-width="2"/>
  <rect x="46" y="44" width="28" height="32" rx="2" fill="white" stroke="#e628a8" stroke-width="1.5"/>
  <rect x="52" y="52" width="5" height="5" rx="1" fill="#e628a8" opacity="0.2"/>
  <rect x="63" y="52" width="5" height="5" rx="1" fill="#e628a8" opacity="0.2"/>
  <rect x="56" y="62" width="8" height="14" rx="1" fill="#e628a8" opacity="0.15"/>
  <!-- Tier badge -->
  <rect x="105" y="60" width="90" height="22" rx="11" fill="#FCE7F3"/>
  <text x="150" y="75" font-family="system-ui, sans-serif" font-size="10" fill="#c51e8c" text-anchor="middle" font-weight="600">Tertiary A-Level</text>
  <!-- Check items -->
  <circle cx="115" cy="100" r="5" fill="#e628a8" opacity="0.15"/>
  <path d="M112 100l2 2 4-4" stroke="#e628a8" stroke-width="1.5" stroke-linecap="round" stroke-linejoin="round"/>
  <text x="128" y="104" font-family="system-ui, sans-serif" font-size="9" fill="#5b6675">JCI-accredited departments</text>
  <circle cx="115" cy="118" r="5" fill="#e628a8" opacity="0.15"/>
  <path d="M112 118l2 2 4-4" stroke="#e628a8" stroke-width="1.5" stroke-linecap="round" stroke-linejoin="round"/>
  <text x="128" y="122" font-family="system-ui, sans-serif" font-size="9" fill="#5b6675">English-speaking staff</text>
  <circle cx="115" cy="136" r="5" fill="#e628a8" opacity="0.15"/>
  <path d="M112 136l2 2 4-4" stroke="#e628a8" stroke-width="1.5" stroke-linecap="round" stroke-linejoin="round"/>
  <text x="128" y="140" font-family="system-ui, sans-serif" font-size="9" fill="#5b6675">International patient centers</text>
  <!-- Label -->
  <text x="160" y="175" font-family="system-ui, sans-serif" font-size="11" fill="#c51e8c" text-anchor="middle" font-weight="600">World-class standards</text>
</svg>
